# xmcd
#
# Track frame offsets:
#	150
#	16300
#	30387
#	48806
#	65797
#	82402
#	98200
#	112983
#	130260
#	144882
#	159138
#	177192
#	193969
#
# Disc length: 2799 seconds
#
# Revision: 0
# Processed by: cddbd v1.5.2PL0 Copyright (c) Steve Scherf et al.
# Submitted via: EasyCDDAExtractor 10.2.0.1
#
DISCID=a80aed0d
DTITLE=Yölintu - Haavoittumaton
DYEAR=2007
DGENRE=Blues
TTITLE0=Haavoittumaton
TTITLE1=Päätalo ja Huovinen
TTITLE2=Sametin Pintaa
TTITLE3=Milloin milloin
TTITLE4=Kaukainen tähti
TTITLE5=Tein sinusta laulun
TTITLE6=Anna mennä vaan
TTITLE7=Preussinpunaista
TTITLE8=Jos sinut saan
TTITLE9=Kaunis nainen
TTITLE10=Kaupungin äänet
TTITLE11=Täysikasvuinen nainen
TTITLE12=Outoa voimaa
EXTD=
EXTT0=
EXTT1=
EXTT2=
EXTT3=
EXTT4=
EXTT5=
EXTT6=
EXTT7=
EXTT8=
EXTT9=
EXTT10=
EXTT11=
EXTT12=
PLAYORDER=
